# xmcd
#
# Track frame offsets:
#	732
#	14426
#	36719
#	51449
#	63642
#	82659
#	99664
#	113398
#	127095
#	141018
#	156290
#	168336
#	186696
#	201705
#	215864
#	227044
#
# Disc length: 3206 seconds
#
# Revision: 2
# Processed by: cddbd v1.5.2PL0 Copyright (c) Steve Scherf et al.
# Submitted via: audiograbber 1.83.01
#
DISCID=fe0c7d10
DTITLE=Bernd Lhotzky - Black Butterfly
DYEAR=2011
DGENRE=Jazz
TTITLE0=Butterfly Study
TTITLE1=All Through The Night
TTITLE2=Hello, Dolly
TTITLE3=Odeon
TTITLE4=Children's Waltz
TTITLE5=Waltz In C-Sharp Minor
TTITLE6=Echoes Of Spring
TTITLE7=Charlston Rag
TTITLE8=I'm Old Fashioned
TTITLE9=Comes Love
TTITLE10=Conversation On Park Avenue
TTITLE11=Black And Blue
TTITLE12=A-Flat Dream
TTITLE13=Can't Help Lovin' That Man
TTITLE14=Carolina Shout
TTITLE15=Black Butterfly
EXTD=YEAR: 2011
EXTT0=
EXTT1=
EXTT2=
EXTT3=
EXTT4=
EXTT5=
EXTT6=
EXTT7=
EXTT8=
EXTT9=
EXTT10=
EXTT11=
EXTT12=
EXTT13=
EXTT14=
EXTT15=
PLAYORDER=
